<svg width="1500" height="1000" viewBox="0 0 1500 1000" fill="none" xmlns="http://www.w3.org/2000/svg">
<rect width="1500" height="1000" fill="#13294B"/>
<path d="M697.422 409.787C681.861 493.063 628.398 555.797 545.494 562.267L547.994 542.766C615.425 536.023 655.63 483.249 671.554 417.249L697.422 409.787ZM701.388 378.791C700.779 387.281 699.807 395.618 698.478 403.771L684.994 407.767L672.951 411.138C674.794 402.615 676.242 393.893 677.303 385.039L688.994 381.767L701.388 378.791ZM701.237 333.71C701.592 338.362 701.847 343.05 701.994 347.766C702.258 356.233 702.173 364.596 701.752 372.825L689.494 375.767L678.001 378.64C679 368.464 679.494 358.139 679.494 347.766C679.494 341.791 679.18 335.421 678.542 328.777L701.237 333.71ZM684.994 301.267L697.711 305.179C699.038 312.891 700.079 320.746 700.816 328.713L688.994 325.767L677.836 322.37C676.834 314.315 675.371 305.928 673.42 297.409L684.994 301.267ZM548.494 145.267C621.938 140.173 678.799 208.612 696.434 298.248L685.062 294.767L671.831 290.866C656.659 231.744 618.091 168.755 548.494 167.266V145.267Z" fill="white"/>
<path d="M826.666 416.67C841.744 475.943 880.334 539.303 950.137 540.797V562.767C874.098 564.467 818.993 498.334 801.991 409.412L826.666 416.67ZM808.995 381.766L820.495 384.766V383.171C821.48 391.862 823.011 400.971 825.117 410.24L814.495 407.267L800.816 402.87C799.522 395.172 798.509 387.317 797.789 379.33L808.995 381.766ZM820.691 328.829C819.653 339.197 819.137 349.722 819.137 360.297C819.137 366.233 819.446 372.559 820.076 379.157L808.995 376.266L797.342 373.839C797.015 369.361 796.779 364.846 796.637 360.297C796.36 351.384 796.531 342.514 797.125 333.739L820.691 328.829ZM825.468 297.914C823.741 306.051 822.371 314.367 821.354 322.803L809.995 325.782L797.507 328.763C798.206 320.645 799.268 312.617 800.669 304.72L813.539 301.266L825.468 297.914ZM801.934 298.063C819.473 211.865 877.689 142.928 949.495 145.767L950.637 165.296C882.869 172.073 842.6 225.343 826.841 291.806L813.539 295.258L801.934 298.063Z" fill="white"/>
<path d="M933.494 146.267C942.494 246.767 852.994 307.767 751.935 310.767C663.023 313.406 558.994 251.767 564.994 145.267H541.494C532.994 252.767 638.994 336.267 751.935 333.267C863.585 333.267 962.994 256.767 958.494 145.267L933.494 146.267Z" fill="white"/>
<path d="M562.994 559.267C565.494 453.267 649.494 402.767 747.054 396.767C831.994 395.767 936.494 448.267 936.494 562.267L959.994 563.267C968.494 455.767 860.994 371.267 747.054 374.267C635.404 374.267 532.994 455.767 541.494 563.267L562.994 559.267Z" fill="white"/>
<path d="M265.742 828.79C265.742 839.337 273.047 844.844 287.656 845.313C288.281 845.313 288.594 845.626 288.594 846.251V849.063C288.594 849.688 288.281 850.001 287.656 850.001H213.125C212.5 850.001 212.188 849.688 212.188 849.063V846.251C212.188 845.626 214.141 845.313 218.047 845.313C221.953 845.313 226.406 844.454 231.406 842.735C239.062 840.235 242.891 836.016 242.891 830.079V774.18C242.891 773.399 242.773 772.891 242.539 772.657C242.305 772.422 241.797 772.305 241.016 772.305H148.672C147.891 772.305 147.383 772.422 147.148 772.657C146.914 772.891 146.797 773.399 146.797 774.18V831.251C146.797 840.626 153.711 845.313 167.539 845.313C168.164 845.313 168.477 845.626 168.477 846.251V849.063C168.477 849.688 168.203 850.001 167.656 850.001H102.969C102.344 850.001 102.031 849.688 102.031 849.063V846.251C102.031 845.626 102.812 845.313 104.375 845.313C117.422 845.313 123.945 839.727 123.945 828.555V703.516C123.945 694.376 118.516 689.532 107.656 688.985C106.016 688.907 105.195 688.555 105.195 687.93V685.704C105.195 685.079 105.469 684.766 106.016 684.766H164.844C165.469 684.766 165.781 685.079 165.781 685.704V687.93C165.781 688.399 165.039 688.633 163.555 688.633C152.383 688.633 146.797 694.141 146.797 705.157V759.297C146.797 760.079 146.914 760.587 147.148 760.821C147.383 761.055 147.891 761.172 148.672 761.172H241.016C241.797 761.172 242.305 761.055 242.539 760.821C242.773 760.587 242.891 760.079 242.891 759.297V703.282C242.734 702.579 242.617 701.954 242.539 701.407C242.539 700.782 242.422 699.844 242.188 698.594C241.641 695.938 238.867 693.79 233.867 692.149C228.867 690.43 223.203 689.337 216.875 688.868C216.25 688.868 215.938 688.555 215.938 687.93V685.704C215.938 685.079 216.211 684.766 216.758 684.766H284.375C285 684.766 285.312 685.079 285.312 685.704V687.93C285.312 688.399 284.57 688.633 283.086 688.633C271.523 688.633 265.742 694.141 265.742 705.157V828.79ZM391.569 849.063C391.569 849.688 391.256 850.001 390.631 850.001H330.748C330.123 850.001 329.811 849.688 329.811 849.063V846.251C329.811 845.626 330.319 845.313 331.334 845.313C342.038 844.844 349.264 839.141 353.014 828.204L400.827 689.805C400.905 689.649 400.944 689.454 400.944 689.219L399.655 685.352C399.655 684.962 399.811 684.766 400.123 684.766H423.561C423.717 684.844 423.913 684.922 424.147 685.001C424.459 685.079 424.694 685.313 424.85 685.704L474.42 824.805C475.514 826.915 476.373 828.829 476.998 830.547C477.702 832.266 478.483 833.829 479.342 835.235C481.217 838.438 484.303 840.899 488.6 842.618C492.194 844.415 495.475 845.313 498.444 845.313C499.069 845.313 499.381 845.665 499.381 846.368V849.063C499.381 849.688 499.069 850.001 498.444 850.001H426.725C426.1 850.001 425.788 849.688 425.788 849.063V846.251C425.788 845.626 427.233 845.235 430.123 845.079C433.014 844.922 435.397 844.766 437.272 844.61C448.131 843.438 453.561 839.766 453.561 833.594C453.561 833.126 453.483 832.579 453.327 831.954L435.631 782.032C435.553 781.876 435.397 781.524 435.163 780.977C434.225 778.321 432.584 776.993 430.241 776.993H388.639C386.295 776.993 384.459 778.282 383.131 780.86C382.897 781.407 382.78 781.719 382.78 781.797L365.202 833.243V834.297C365.202 836.329 366.256 838.165 368.366 839.805C373.131 843.477 379.538 845.313 387.584 845.313H390.631C391.256 845.313 391.569 845.626 391.569 846.251V849.063ZM426.256 763.985C427.663 763.985 428.366 763.399 428.366 762.227C428.366 761.602 428.209 760.899 427.897 760.118L410.436 712.071C409.655 709.962 409.069 708.907 408.678 708.907C408.288 708.907 407.663 710.001 406.803 712.188L390.397 760.118C390.084 760.899 389.928 761.758 389.928 762.696C389.928 763.555 390.514 763.985 391.686 763.985H426.256ZM535.794 850.001C535.169 850.001 534.856 849.688 534.856 849.063V846.251C534.856 845.626 535.403 845.313 536.497 845.313C540.169 845.313 544.231 844.922 548.684 844.141C562.981 841.719 570.13 836.797 570.13 829.376V705.743C569.348 695.743 564.778 690.313 556.419 689.454C553.919 689.141 551.145 688.985 548.098 688.985H541.419C540.794 688.985 540.481 688.672 540.481 688.047V685.118C540.481 684.493 540.794 684.18 541.419 684.18L546.575 684.063L566.731 683.946L608.45 682.657C653.138 682.657 675.481 695.86 675.481 722.266C675.481 733.438 669.7 742.735 658.138 750.157C656.341 751.329 654.778 752.188 653.45 752.735C652.2 753.282 651.497 753.594 651.341 753.672C661.653 759.454 669.739 765.938 675.598 773.126C681.536 780.313 684.505 788.907 684.505 798.907C684.505 820.235 674.427 835.079 654.27 843.438C643.88 847.813 632.591 850.001 620.403 850.001H535.794ZM595.091 758.594C594.075 758.594 593.567 759.024 593.567 759.883V824.102C593.567 829.649 596.145 834.102 601.302 837.462C606.536 840.821 612.161 842.501 618.177 842.501C629.739 842.501 639.583 838.399 647.708 830.196C655.833 821.915 659.895 811.758 659.895 799.727C659.895 787.618 655.52 777.735 646.77 770.079C638.098 762.422 627.083 758.594 613.723 758.594H595.091ZM593.333 749.102C593.333 750.587 594.231 751.329 596.028 751.329H624.856C632.356 751.329 638.645 748.555 643.723 743.008C648.88 737.462 651.458 731.251 651.458 724.376C651.458 712.11 647.981 703.243 641.028 697.774C634.075 692.227 624.817 689.454 613.255 689.454C609.739 689.688 607.278 689.805 605.872 689.805C604.544 689.805 603.138 689.805 601.653 689.805C600.169 689.727 598.684 689.805 597.2 690.04C595.716 690.274 594.7 690.782 594.153 691.563C593.606 692.344 593.333 693.633 593.333 695.43V749.102ZM759.941 703.516C759.941 694.141 754.55 689.454 743.769 689.454C742.05 689.454 741.191 689.141 741.191 688.516V685.704C741.191 685.079 741.503 684.766 742.128 684.766H800.839C801.464 684.766 801.777 685.079 801.777 685.704V688.516C801.777 689.141 800.058 689.454 796.62 689.454C793.183 689.454 790.019 690.547 787.128 692.735C784.237 694.922 782.792 699.415 782.792 706.212V831.251C782.792 840.626 788.222 845.313 799.081 845.313C800.722 845.313 801.542 845.626 801.542 846.251V849.063C801.542 849.688 801.23 850.001 800.605 850.001H741.894C741.269 850.001 740.956 849.688 740.956 849.063V846.251C740.956 845.626 742.675 845.313 746.112 845.313C749.55 845.313 752.714 844.219 755.605 842.032C758.495 839.844 759.941 835.352 759.941 828.555V703.516ZM892.798 846.251C892.798 845.626 893.15 845.313 893.853 845.313H897.134C904.791 845.313 910.923 843.672 915.533 840.391C920.22 837.11 922.564 833.282 922.564 828.907V699.18C922.564 697.54 922.213 696.641 921.509 696.485C920.884 696.251 920.103 696.055 919.166 695.899H874.166C866.9 697.462 862.134 703.047 859.869 712.657C858.619 717.813 857.877 721.133 857.642 722.618C857.408 724.024 856.978 724.727 856.353 724.727H854.244C853.775 724.727 853.541 724.571 853.541 724.258V720.391L857.877 683.829C858.345 681.407 859.127 680.196 860.22 680.196C861.314 680.196 862.486 680.977 863.736 682.54C864.986 684.024 867.369 684.766 870.884 684.766H997.213C1000.57 684.766 1002.6 684.376 1003.31 683.594C1004.01 682.813 1004.67 682.071 1005.3 681.368C1005.92 680.587 1006.7 680.196 1007.64 680.196C1008.66 680.196 1009.28 680.587 1009.52 681.368C1009.83 682.149 1010.06 682.969 1010.22 683.829L1014.56 720.391V724.258C1014.56 724.571 1014.32 724.727 1013.85 724.727H1011.74C1011.12 724.727 1010.69 724.141 1010.45 722.969C1009.2 715.157 1007.41 708.985 1005.06 704.454C1002.72 699.844 999.009 696.993 993.931 695.899H948.814C947.877 696.055 947.056 696.251 946.353 696.485C945.728 696.641 945.416 697.54 945.416 699.18V828.907C945.416 833.282 947.72 837.11 952.33 840.391C957.017 843.672 963.189 845.313 970.845 845.313H974.244C974.869 845.313 975.181 845.626 975.181 846.251V849.063C975.181 849.688 974.869 850.001 974.244 850.001H893.736C893.111 850.001 892.798 849.688 892.798 849.063V846.251ZM1122.92 689.454C1109.8 689.454 1103.23 694.688 1103.23 705.157V789.063C1103.23 804.532 1108.35 817.188 1118.59 827.032C1128.82 836.797 1141.95 841.68 1157.96 841.68C1174.6 841.68 1188.23 837.227 1198.86 828.321C1209.56 819.337 1214.91 806.915 1214.91 791.055V716.524C1214.91 709.102 1214.25 703.946 1212.92 701.055C1209.56 693.321 1201.98 689.454 1190.19 689.454C1189.56 689.454 1189.25 689.141 1189.25 688.516V685.704C1189.25 685.079 1189.56 684.766 1190.19 684.766H1247.84C1248.47 684.766 1248.78 685.079 1248.78 685.704V688.516C1248.78 689.141 1247.92 689.454 1246.2 689.454C1235.97 689.454 1229.72 693.438 1227.45 701.407C1227.06 702.735 1226.87 703.985 1226.87 705.157V781.915C1226.87 816.212 1213.74 838.282 1187.49 848.126C1178.66 851.485 1169.88 853.165 1161.12 853.165C1129.8 853.165 1106.71 844.962 1091.87 828.555C1084.21 820.118 1080.38 809.688 1080.38 797.266V703.516C1080.38 696.876 1076.36 692.501 1068.31 690.391C1065.97 689.766 1063.98 689.454 1062.34 689.454C1060.7 689.454 1059.88 689.141 1059.88 688.516V685.704C1059.88 685.079 1060.15 684.766 1060.7 684.766H1124.21C1124.84 684.766 1125.15 685.079 1125.15 685.704V688.516C1125.15 689.141 1124.41 689.454 1122.92 689.454ZM1384.1 686.172C1384.88 686.172 1385.27 687.032 1385.27 688.751L1388.32 713.712C1388.63 715.274 1388.79 716.29 1388.79 716.758C1388.79 717.149 1388.16 717.344 1386.91 717.344C1385.74 717.344 1385 717.188 1384.69 716.876C1384.37 716.563 1384.06 716.055 1383.75 715.352C1383.44 714.571 1383.05 713.712 1382.58 712.774C1382.19 711.837 1381.76 710.899 1381.29 709.962C1379.65 706.368 1377.07 702.813 1373.55 699.297C1364.96 691.016 1355.27 686.876 1344.49 686.876C1338.01 686.876 1331.87 688.985 1326.09 693.204C1320.31 697.422 1317.42 702.422 1317.42 708.204C1317.42 713.907 1318.47 718.868 1320.58 723.087C1322.77 727.305 1325.62 731.212 1329.14 734.805C1332.65 738.399 1336.68 741.837 1341.21 745.118C1345.74 748.399 1350.35 751.719 1355.04 755.079C1367.46 763.751 1376.29 771.172 1381.52 777.344C1389.72 786.876 1394.18 797.579 1394.88 809.454C1394.88 822.735 1389.76 833.36 1379.53 841.329C1369.37 849.219 1357.54 853.165 1344.02 853.165C1335.35 853.165 1328.44 852.266 1323.28 850.469C1318.2 848.751 1314.69 847.501 1312.73 846.719C1310.78 845.938 1309.33 845.547 1308.4 845.547C1307.54 845.547 1306.99 845.587 1306.76 845.665L1301.01 846.837C1300 846.837 1299.37 846.016 1299.14 844.376C1296.87 825.001 1295.74 814.727 1295.74 813.555C1295.74 812.305 1295.82 811.485 1295.97 811.094C1296.21 810.626 1296.76 810.391 1297.62 810.391C1299.8 810.391 1301.8 813.516 1303.59 819.766C1311.8 837.344 1325.43 846.133 1344.49 846.133C1353.24 846.133 1360.7 843.477 1366.87 838.165C1373.12 832.852 1376.25 825.938 1376.25 817.422C1376.25 803.829 1368.12 791.172 1351.87 779.454C1347.26 776.172 1340.62 771.602 1331.95 765.743C1323.28 759.883 1316.37 754.024 1311.21 748.165C1303.16 739.102 1299.14 729.024 1299.14 717.93C1299.14 706.758 1303.55 697.618 1312.38 690.508C1321.29 683.399 1331.48 679.844 1342.97 679.844C1348.9 679.844 1355.43 680.86 1362.54 682.891C1369.72 684.922 1374.72 686.29 1377.54 686.993L1384.1 686.172Z" fill="white"/>
</svg>
