<svg width="1500" height="1000" viewBox="0 0 1500 1000" fill="none" xmlns="http://www.w3.org/2000/svg">
<path d="M697.188 409.787C681.627 493.063 628.165 555.797 545.261 562.267L547.761 542.766C615.192 536.023 655.396 483.249 671.32 417.249L697.188 409.787ZM701.154 378.791C700.546 387.281 699.574 395.618 698.244 403.771L684.761 407.767L672.718 411.138C674.56 402.615 676.009 393.893 677.069 385.039L688.761 381.767L701.154 378.791ZM701.004 333.71C701.359 338.362 701.614 343.05 701.761 347.766C702.024 356.233 701.939 364.596 701.518 372.825L689.261 375.767L677.767 378.64C678.766 368.464 679.261 358.139 679.261 347.766C679.261 341.791 678.947 335.421 678.308 328.777L701.004 333.71ZM684.761 301.267L697.477 305.179C698.805 312.891 699.845 320.746 700.583 328.713L688.761 325.767L677.602 322.37C676.601 314.315 675.137 305.928 673.186 297.409L684.761 301.267ZM548.261 145.267C621.705 140.173 678.566 208.612 696.2 298.248L684.829 294.767L671.598 290.866C656.425 231.744 617.857 168.755 548.261 167.266V145.267Z" fill="#B67233"/>
<path d="M826.432 416.67C841.51 475.943 880.101 539.303 949.904 540.797V562.767C873.864 564.467 818.76 498.334 801.757 409.412L826.432 416.67ZM808.761 381.766L820.261 384.766V383.171C821.246 391.862 822.777 400.971 824.883 410.24L814.261 407.267L800.582 402.87C799.288 395.172 798.275 387.317 797.555 379.33L808.761 381.766ZM820.457 328.829C819.419 339.197 818.904 349.722 818.904 360.297C818.904 366.233 819.212 372.559 819.842 379.157L808.761 376.266L797.108 373.839C796.782 369.361 796.545 364.846 796.404 360.297C796.126 351.384 796.298 342.514 796.891 333.739L820.457 328.829ZM825.235 297.914C823.508 306.051 822.137 314.367 821.121 322.803L809.761 325.782L797.273 328.763C797.972 320.645 799.034 312.617 800.435 304.72L813.305 301.266L825.235 297.914ZM801.701 298.063C819.239 211.865 877.455 142.928 949.261 145.767L950.404 165.296C882.635 172.072 842.366 225.343 826.607 291.805L813.305 295.258L801.701 298.063Z" fill="#B67233"/>
<path d="M933.261 146.267C942.261 246.767 852.761 307.767 751.701 310.767C662.79 313.407 558.761 251.767 564.761 145.267H541.261C532.761 252.767 638.761 336.267 751.701 333.267C863.351 333.267 962.761 256.767 958.261 145.267L933.261 146.267Z" fill="#B67233"/>
<path d="M562.761 559.267C565.261 453.267 649.261 402.767 746.82 396.767C831.761 395.767 936.261 448.267 936.261 562.267L959.761 563.267C968.261 455.767 860.761 371.267 746.82 374.267C635.17 374.267 532.761 455.767 541.261 563.267L562.761 559.267Z" fill="#B67233"/>
<path d="M266.028 829.056C266.028 839.603 273.333 845.111 287.942 845.58C288.567 845.58 288.88 845.892 288.88 846.517V849.33C288.88 849.955 288.567 850.267 287.942 850.267H213.411C212.786 850.267 212.473 849.955 212.473 849.33V846.517C212.473 845.892 214.427 845.58 218.333 845.58C222.239 845.58 226.692 844.72 231.692 843.001C239.348 840.501 243.177 836.283 243.177 830.345V774.447C243.177 773.666 243.059 773.158 242.825 772.923C242.591 772.689 242.083 772.572 241.302 772.572H148.958C148.177 772.572 147.669 772.689 147.434 772.923C147.2 773.158 147.083 773.666 147.083 774.447V831.517C147.083 840.892 153.997 845.58 167.825 845.58C168.45 845.58 168.763 845.892 168.763 846.517V849.33C168.763 849.955 168.489 850.267 167.942 850.267H103.255C102.63 850.267 102.317 849.955 102.317 849.33V846.517C102.317 845.892 103.098 845.58 104.661 845.58C117.708 845.58 124.231 839.994 124.231 828.822V703.783C124.231 694.642 118.802 689.798 107.942 689.251C106.302 689.173 105.481 688.822 105.481 688.197V685.97C105.481 685.345 105.755 685.033 106.302 685.033H165.13C165.755 685.033 166.067 685.345 166.067 685.97V688.197C166.067 688.666 165.325 688.9 163.841 688.9C152.669 688.9 147.083 694.408 147.083 705.423V759.564C147.083 760.345 147.2 760.853 147.434 761.087C147.669 761.322 148.177 761.439 148.958 761.439H241.302C242.083 761.439 242.591 761.322 242.825 761.087C243.059 760.853 243.177 760.345 243.177 759.564V703.548C243.02 702.845 242.903 702.22 242.825 701.673C242.825 701.048 242.708 700.111 242.473 698.861C241.927 696.205 239.153 694.056 234.153 692.416C229.153 690.697 223.489 689.603 217.161 689.134C216.536 689.134 216.223 688.822 216.223 688.197V685.97C216.223 685.345 216.497 685.033 217.044 685.033H284.661C285.286 685.033 285.598 685.345 285.598 685.97V688.197C285.598 688.666 284.856 688.9 283.372 688.9C271.809 688.9 266.028 694.408 266.028 705.423V829.056ZM391.855 849.33C391.855 849.955 391.542 850.267 390.917 850.267H331.034C330.409 850.267 330.097 849.955 330.097 849.33V846.517C330.097 845.892 330.605 845.58 331.62 845.58C342.323 845.111 349.55 839.408 353.3 828.47L401.113 690.072C401.191 689.916 401.23 689.72 401.23 689.486L399.941 685.619C399.941 685.228 400.097 685.033 400.409 685.033H423.847C424.003 685.111 424.198 685.189 424.433 685.267C424.745 685.345 424.98 685.58 425.136 685.97L474.706 825.072C475.8 827.181 476.659 829.095 477.284 830.814C477.988 832.533 478.769 834.095 479.628 835.501C481.503 838.705 484.589 841.166 488.886 842.884C492.48 844.681 495.761 845.58 498.73 845.58C499.355 845.58 499.667 845.931 499.667 846.634V849.33C499.667 849.955 499.355 850.267 498.73 850.267H427.011C426.386 850.267 426.073 849.955 426.073 849.33V846.517C426.073 845.892 427.519 845.501 430.409 845.345C433.3 845.189 435.683 845.033 437.558 844.876C448.417 843.705 453.847 840.033 453.847 833.861C453.847 833.392 453.769 832.845 453.613 832.22L435.917 782.298C435.839 782.142 435.683 781.791 435.448 781.244C434.511 778.587 432.87 777.259 430.527 777.259H388.925C386.581 777.259 384.745 778.548 383.417 781.126C383.183 781.673 383.066 781.986 383.066 782.064L365.488 833.509V834.564C365.488 836.595 366.542 838.431 368.652 840.072C373.417 843.744 379.823 845.58 387.87 845.58H390.917C391.542 845.58 391.855 845.892 391.855 846.517V849.33ZM426.542 764.251C427.948 764.251 428.652 763.666 428.652 762.494C428.652 761.869 428.495 761.166 428.183 760.384L410.722 712.337C409.941 710.228 409.355 709.173 408.964 709.173C408.573 709.173 407.948 710.267 407.089 712.455L390.683 760.384C390.37 761.166 390.214 762.025 390.214 762.962C390.214 763.822 390.8 764.251 391.972 764.251H426.542ZM536.08 850.267C535.455 850.267 535.142 849.955 535.142 849.33V846.517C535.142 845.892 535.689 845.58 536.783 845.58C540.455 845.58 544.517 845.189 548.97 844.408C563.267 841.986 570.416 837.064 570.416 829.642V706.009C569.634 696.009 565.064 690.58 556.705 689.72C554.205 689.408 551.431 689.251 548.384 689.251H541.705C541.08 689.251 540.767 688.939 540.767 688.314V685.384C540.767 684.759 541.08 684.447 541.705 684.447L546.861 684.33L567.017 684.212L608.736 682.923C653.423 682.923 675.767 696.126 675.767 722.533C675.767 733.705 669.986 743.001 658.423 750.423C656.627 751.595 655.064 752.455 653.736 753.001C652.486 753.548 651.783 753.861 651.627 753.939C661.939 759.72 670.025 766.205 675.884 773.392C681.822 780.58 684.791 789.173 684.791 799.173C684.791 820.501 674.713 835.345 654.556 843.705C644.166 848.08 632.877 850.267 620.689 850.267H536.08ZM595.377 758.861C594.361 758.861 593.853 759.291 593.853 760.15V824.369C593.853 829.916 596.431 834.369 601.588 837.728C606.822 841.087 612.447 842.767 618.463 842.767C630.025 842.767 639.869 838.666 647.994 830.462C656.119 822.181 660.181 812.025 660.181 799.994C660.181 787.884 655.806 778.001 647.056 770.345C638.384 762.689 627.369 758.861 614.009 758.861H595.377ZM593.619 749.369C593.619 750.853 594.517 751.595 596.314 751.595H625.142C632.642 751.595 638.931 748.822 644.009 743.275C649.166 737.728 651.744 731.517 651.744 724.642C651.744 712.376 648.267 703.509 641.314 698.041C634.361 692.494 625.103 689.72 613.541 689.72C610.025 689.955 607.564 690.072 606.158 690.072C604.83 690.072 603.423 690.072 601.939 690.072C600.455 689.994 598.97 690.072 597.486 690.306C596.002 690.541 594.986 691.048 594.439 691.83C593.892 692.611 593.619 693.9 593.619 695.697V749.369ZM760.227 703.783C760.227 694.408 754.836 689.72 744.055 689.72C742.336 689.72 741.477 689.408 741.477 688.783V685.97C741.477 685.345 741.789 685.033 742.414 685.033H801.125C801.75 685.033 802.062 685.345 802.062 685.97V688.783C802.062 689.408 800.344 689.72 796.906 689.72C793.469 689.72 790.305 690.814 787.414 693.001C784.523 695.189 783.078 699.681 783.078 706.478V831.517C783.078 840.892 788.508 845.58 799.367 845.58C801.008 845.58 801.828 845.892 801.828 846.517V849.33C801.828 849.955 801.516 850.267 800.891 850.267H742.18C741.555 850.267 741.242 849.955 741.242 849.33V846.517C741.242 845.892 742.961 845.58 746.398 845.58C749.836 845.58 753 844.486 755.891 842.298C758.781 840.111 760.227 835.619 760.227 828.822V703.783ZM893.084 846.517C893.084 845.892 893.436 845.58 894.139 845.58H897.42C905.077 845.58 911.209 843.939 915.819 840.658C920.506 837.376 922.85 833.548 922.85 829.173V699.447C922.85 697.806 922.498 696.908 921.795 696.751C921.17 696.517 920.389 696.322 919.452 696.166H874.452C867.186 697.728 862.42 703.314 860.155 712.923C858.905 718.08 858.163 721.4 857.928 722.884C857.694 724.291 857.264 724.994 856.639 724.994H854.53C854.061 724.994 853.827 724.837 853.827 724.525V720.658L858.163 684.095C858.631 681.673 859.413 680.462 860.506 680.462C861.6 680.462 862.772 681.244 864.022 682.806C865.272 684.291 867.655 685.033 871.17 685.033H997.498C1000.86 685.033 1002.89 684.642 1003.59 683.861C1004.3 683.08 1004.96 682.337 1005.58 681.634C1006.21 680.853 1006.99 680.462 1007.93 680.462C1008.94 680.462 1009.57 680.853 1009.8 681.634C1010.12 682.416 1010.35 683.236 1010.51 684.095L1014.84 720.658V724.525C1014.84 724.837 1014.61 724.994 1014.14 724.994H1012.03C1011.4 724.994 1010.98 724.408 1010.74 723.236C1009.49 715.423 1007.69 709.251 1005.35 704.72C1003.01 700.111 999.295 697.259 994.217 696.166H949.1C948.163 696.322 947.342 696.517 946.639 696.751C946.014 696.908 945.702 697.806 945.702 699.447V829.173C945.702 833.548 948.006 837.376 952.616 840.658C957.303 843.939 963.475 845.58 971.131 845.58H974.53C975.155 845.58 975.467 845.892 975.467 846.517V849.33C975.467 849.955 975.155 850.267 974.53 850.267H894.022C893.397 850.267 893.084 849.955 893.084 849.33V846.517ZM1123.21 689.72C1110.08 689.72 1103.52 694.955 1103.52 705.423V789.33C1103.52 804.798 1108.64 817.455 1118.87 827.298C1129.11 837.064 1142.23 841.947 1158.25 841.947C1174.89 841.947 1188.52 837.494 1199.15 828.587C1209.85 819.603 1215.2 807.181 1215.2 791.322V716.791C1215.2 709.369 1214.54 704.212 1213.21 701.322C1209.85 693.587 1202.27 689.72 1190.47 689.72C1189.85 689.72 1189.54 689.408 1189.54 688.783V685.97C1189.54 685.345 1189.85 685.033 1190.47 685.033H1248.13C1248.75 685.033 1249.07 685.345 1249.07 685.97V688.783C1249.07 689.408 1248.21 689.72 1246.49 689.72C1236.25 689.72 1230 693.705 1227.74 701.673C1227.35 703.001 1227.15 704.251 1227.15 705.423V782.181C1227.15 816.478 1214.03 838.548 1187.78 848.392C1178.95 851.751 1170.16 853.431 1161.41 853.431C1130.08 853.431 1107 845.228 1092.15 828.822C1084.5 820.384 1080.67 809.955 1080.67 797.533V703.783C1080.67 697.142 1076.65 692.767 1068.6 690.658C1066.25 690.033 1064.26 689.72 1062.62 689.72C1060.98 689.72 1060.16 689.408 1060.16 688.783V685.97C1060.16 685.345 1060.43 685.033 1060.98 685.033H1124.5C1125.12 685.033 1125.43 685.345 1125.43 685.97V688.783C1125.43 689.408 1124.69 689.72 1123.21 689.72ZM1384.39 686.439C1385.17 686.439 1385.56 687.298 1385.56 689.017L1388.6 713.978C1388.92 715.541 1389.07 716.556 1389.07 717.025C1389.07 717.416 1388.45 717.611 1387.2 717.611C1386.03 717.611 1385.28 717.455 1384.97 717.142C1384.66 716.83 1384.35 716.322 1384.03 715.619C1383.72 714.837 1383.33 713.978 1382.86 713.041C1382.47 712.103 1382.04 711.166 1381.57 710.228C1379.93 706.634 1377.35 703.08 1373.84 699.564C1365.25 691.283 1355.56 687.142 1344.78 687.142C1338.29 687.142 1332.16 689.251 1326.38 693.47C1320.6 697.689 1317.71 702.689 1317.71 708.47C1317.71 714.173 1318.76 719.134 1320.87 723.353C1323.06 727.572 1325.91 731.478 1329.43 735.072C1332.94 738.666 1336.96 742.103 1341.5 745.384C1346.03 748.666 1350.64 751.986 1355.32 755.345C1367.75 764.017 1376.57 771.439 1381.81 777.611C1390.01 787.142 1394.46 797.845 1395.17 809.72C1395.17 823.001 1390.05 833.626 1379.82 841.595C1369.66 849.486 1357.82 853.431 1344.31 853.431C1335.64 853.431 1328.72 852.533 1323.57 850.736C1318.49 849.017 1314.97 847.767 1313.02 846.986C1311.07 846.205 1309.62 845.814 1308.68 845.814C1307.82 845.814 1307.28 845.853 1307.04 845.931L1301.3 847.103C1300.28 847.103 1299.66 846.283 1299.43 844.642C1297.16 825.267 1296.03 814.994 1296.03 813.822C1296.03 812.572 1296.1 811.751 1296.26 811.361C1296.5 810.892 1297.04 810.658 1297.9 810.658C1300.09 810.658 1302.08 813.783 1303.88 820.033C1312.08 837.611 1325.71 846.4 1344.78 846.4C1353.53 846.4 1360.99 843.744 1367.16 838.431C1373.41 833.119 1376.53 826.205 1376.53 817.689C1376.53 804.095 1368.41 791.439 1352.16 779.72C1347.55 776.439 1340.91 771.869 1332.24 766.009C1323.57 760.15 1316.65 754.291 1311.5 748.431C1303.45 739.369 1299.43 729.291 1299.43 718.197C1299.43 707.025 1303.84 697.884 1312.67 690.775C1321.57 683.666 1331.77 680.111 1343.25 680.111C1349.19 680.111 1355.71 681.126 1362.82 683.158C1370.01 685.189 1375.01 686.556 1377.82 687.259L1384.39 686.439Z" fill="#13294B"/>
</svg>
