<svg width="500" height="500" viewBox="540 140 420 430" fill="none" xmlns="http://www.w3.org/2000/svg">
<path d="M697.188 409.787C681.627 493.063 628.165 555.797 545.261 562.267L547.761 542.766C615.192 536.023 655.396 483.249 671.32 417.249L697.188 409.787ZM701.154 378.791C700.546 387.281 699.574 395.618 698.244 403.771L684.761 407.767L672.718 411.138C674.56 402.615 676.009 393.893 677.069 385.039L688.761 381.767L701.154 378.791ZM701.004 333.71C701.359 338.362 701.614 343.05 701.761 347.766C702.024 356.233 701.939 364.596 701.518 372.825L689.261 375.767L677.767 378.64C678.766 368.464 679.261 358.139 679.261 347.766C679.261 341.791 678.947 335.421 678.308 328.777L701.004 333.71ZM684.761 301.267L697.477 305.179C698.805 312.891 699.845 320.746 700.583 328.713L688.761 325.767L677.602 322.37C676.601 314.315 675.137 305.928 673.186 297.409L684.761 301.267ZM548.261 145.267C621.705 140.173 678.566 208.612 696.2 298.248L684.829 294.767L671.598 290.866C656.425 231.744 617.857 168.755 548.261 167.266V145.267Z" fill="#B67233"/>
<path d="M826.432 416.67C841.51 475.943 880.101 539.303 949.904 540.797V562.767C873.864 564.467 818.76 498.334 801.757 409.412L826.432 416.67ZM808.761 381.766L820.261 384.766V383.171C821.246 391.862 822.777 400.971 824.883 410.24L814.261 407.267L800.582 402.87C799.288 395.172 798.275 387.317 797.555 379.33L808.761 381.766ZM820.457 328.829C819.419 339.197 818.904 349.722 818.904 360.297C818.904 366.233 819.212 372.559 819.842 379.157L808.761 376.266L797.108 373.839C796.782 369.361 796.545 364.846 796.404 360.297C796.126 351.384 796.298 342.514 796.891 333.739L820.457 328.829ZM825.235 297.914C823.508 306.051 822.137 314.367 821.121 322.803L809.761 325.782L797.273 328.763C797.972 320.645 799.034 312.617 800.435 304.72L813.305 301.266L825.235 297.914ZM801.701 298.063C819.239 211.865 877.455 142.928 949.261 145.767L950.404 165.296C882.635 172.072 842.366 225.343 826.607 291.805L813.305 295.258L801.701 298.063Z" fill="#B67233"/>
<path d="M933.261 146.267C942.261 246.767 852.761 307.767 751.701 310.767C662.79 313.407 558.761 251.767 564.761 145.267H541.261C532.761 252.767 638.761 336.267 751.701 333.267C863.351 333.267 962.761 256.767 958.261 145.267L933.261 146.267Z" fill="#B67233"/>
<path d="M562.761 559.267C565.261 453.267 649.261 402.767 746.82 396.767C831.761 395.767 936.261 448.267 936.261 562.267L959.761 563.267C968.261 455.767 860.761 371.267 746.82 374.267C635.17 374.267 532.761 455.767 541.261 563.267L562.761 559.267Z" fill="#B67233"/>
</svg>
